# xmcd
#
# Track frame offsets: 
#        212
#        21030
#        42975
#        61287
#        84120
#        108375
#        127757
#        157550
#        183745
#
# Disc length: 2693 seconds
#
# Revision: 0
# Processed by: cddbd v1.5.2PL0 Copyright (c) Steve Scherf et al.
# Submitted via: ExactAudioCopyFreeDBPlugin 1.0
#
DISCID=5f0a8309
DTITLE=Gregg Smith - $$ Money Talks $$
DYEAR=1990
DGENRE=Blues
TTITLE0=Lowdown
TTITLE1=Blues In My Blood
TTITLE2=Money Talks
TTITLE3=Party Warrior
TTITLE4=Stick And Stary
TTITLE5=Stuck On You
TTITLE6=Young Men Don´t Get The Blues
TTITLE7=You Are
TTITLE8=Crying In The Chapel
EXTD=
EXTT0=
EXTT1=
EXTT2=
EXTT3=
EXTT4=
EXTT5=
EXTT6=
EXTT7=
EXTT8=
PLAYORDER=
